# xmcd
# Copyright (C) 1995-1998 Ti Kan
#
# Track frame offsets:
#       150
#       16135
#       28462
#       46722
#       62122
#       76575
#       90600
#       106275
#       125222
#       143175
#       161250
#       179282
#       196687
#
# Disc length: 3182 seconds
#
# Revision: 2
# Processed by: cddbd v1.5.1PL2 Copyright (c) Steve Scherf et al.
# Submitted via: CD-Transfer v1.0
#
DISCID=a00c6c0d
DTITLE=Disgroove - Three
DYEAR=2006
DGENRE=
TTITLE0=Mass Confusion
TTITLE1=Come Down
TTITLE2=Your Blond
TTITLE3=The Sky Turns Black
TTITLE4=Where I Belong
TTITLE5=R´n´r Star
TTITLE6=P.o.a.d.
TTITLE7=Ready
TTITLE8=Pay For What I Am
TTITLE9=The Only One
TTITLE10=Promises
TTITLE11=Falling
TTITLE12=Learn To Be Right
EXTD=
EXTT0=
EXTT1=
EXTT2=
EXTT3=
EXTT4=
EXTT5=
EXTT6=
EXTT7=
EXTT8=
EXTT9=
EXTT10=
EXTT11=
EXTT12=
PLAYORDER=
